<?xml version="1.0" encoding="utf-8"?>
<!-- Generator: Adobe Illustrator 23.0.5, SVG Export Plug-In . SVG Version: 6.00 Build 0)  -->
<svg version="1.1" id="Layer_1" xmlns:serif="http://www.serif.com/"
	 xmlns="http://www.w3.org/2000/svg" xmlns:xlink="http://www.w3.org/1999/xlink" x="0px" y="0px" viewBox="0 0 1500 1500"
	 style="enable-background:new 0 0 1500 1500;" xml:space="preserve">
<style type="text/css">
	.st0{fill:#F5F5F5;}
	.st1{fill:#D0CFD7;stroke:#D0CFD7;stroke-width:1.53;stroke-linejoin:round;stroke-miterlimit:2;}
	.st2{fill:#D1D1D5;}
	.st3{fill-rule:evenodd;clip-rule:evenodd;fill:#D1D1D5;}
	.st4{fill-rule:evenodd;clip-rule:evenodd;}
	.st5{fill:#FAFAFA;}
</style>
<g transform="matrix(0.653846,0,0,0.653846,-68.4935,-46.5367)">
	<path class="st0" d="M1453.3,572.1h-404c-19,0-34.7,15.7-34.7,34.7v897.8l-4.6,1.4l-99.1,30.3c-9.7,3-20.1-2.6-23.1-12.3L593,561.2
		c-3-9.7,2.6-20.2,12.3-23.1L758,491.3l442.7-135.5l152.7-46.8c1.8-0.5,3.6-0.8,5.4-0.8c8.1,0,15.3,5.3,17.7,13.1l75.3,246.1
		L1453.3,572.1z"/>
</g>
<g transform="matrix(0.653846,0,0,0.653846,-68.4935,-46.5367)">
	<path class="st1" d="M1541.5,567.4l-90.8-296.6c-5-16.5-20.4-27.8-37.6-27.8c-3.9,0-7.8,0.6-11.5,1.7l-214.7,65.7L744.1,446
		l-214.7,65.7c-20.6,6.3-32.4,28.5-26.1,49.1l310.4,1013.7c5.1,16.5,20.4,27.8,37.6,27.8c3.9,0,7.8-0.6,11.5-1.7l147.2-45l4.6-1.4
		v-4.8l-4.6,1.4l-148.5,45.5c-18.2,5.6-37.8-4.8-43.4-23L507.7,559.5c-1-3.3-1.5-6.7-1.5-10.2c0-15.2,10-28.7,24.6-33.2l214.7-65.7
		l442.7-135.5l214.7-65.7c3.3-1,6.8-1.5,10.2-1.5c15.2,0,28.7,10,33.1,24.6l90.4,295.3l1.4,4.6h4.8L1541.5,567.4z"/>
</g>
<g transform="matrix(0.653846,0,0,0.653846,-68.4935,-46.5367)">
	<path class="st2" d="M785.6,538.8c-9.1,0-17.2-6-19.9-14.7l-29.8-97.4c-0.6-2-0.9-4-0.9-6.1c0-9.1,6-17.2,14.7-19.9L1156.9,276
		c10.9-3.3,22.7,2.9,26,13.8l29.8,97.4c3.3,10.9-2.9,22.7-13.8,26L791.6,537.9C789.7,538.5,787.6,538.8,785.6,538.8z"/>
</g>
<g transform="matrix(0.653846,0,0,0.653846,112.087,41.0218)">
	<circle class="st3" cx="665.6" cy="166.8" r="46.3"/>
</g>
<g transform="matrix(0.653846,0,0,0.653846,112.087,41.0218)">
	<circle class="st4" cx="665.6" cy="166.8" r="29.3"/>
</g>
<g transform="matrix(0.653846,0,0,0.653846,-68.4935,-46.5367)">
	<path class="st5" d="M1896.6,1590.6h-782.4c-10.8,0-19.7-8.9-19.7-19.7V633.4c0-10.8,8.9-19.7,19.7-19.7h782.4
		c10.8,0,19.7,8.9,19.7,19.7v937.5C1916.2,1581.7,1907.4,1590.6,1896.6,1590.6z"/>
</g>
<g transform="matrix(0.653846,0,0,0.653846,-68.4935,-46.5367)">
	<path class="st1" d="M1536.6,567.4h-487.3c-21.6,0-39.3,17.8-39.4,39.4v944l4.6-1.4V606.8c0-19,15.7-34.7,34.7-34.7H1538
		L1536.6,567.4z M1961.4,567.4h-912c-21.6,0-39.3,17.8-39.4,39.4V1667c0,21.6,17.8,39.3,39.4,39.4h912c21.6,0,39.3-17.8,39.4-39.4
		V606.8C2000.7,585.2,1983,567.5,1961.4,567.4z M1996.1,1667c0,19-15.7,34.7-34.7,34.7h-912c-19,0-34.7-15.7-34.7-34.7V606.8
		c0-19,15.7-34.7,34.7-34.7h912c19,0,34.7,15.7,34.7,34.7V1667z"/>
</g>
<g transform="matrix(0.653846,0,0,0.653846,-68.4935,-46.5367)">
	<path class="st2" d="M1718.3,669.3h-425.9c-11.4,0-20.8-9.4-20.8-20.8V546.6c0-11.4,9.4-20.8,20.8-20.8h425.9
		c11.4,0,20.8,9.4,20.8,20.8v101.9C1739.1,659.9,1729.8,669.3,1718.3,669.3z"/>
</g>
<g transform="matrix(0.653846,0,0,0.653846,112.087,41.0218)">
	<circle class="st3" cx="1229.2" cy="352.5" r="46.3"/>
</g>
<g transform="matrix(0.653846,0,0,0.653846,112.087,41.0218)">
	<circle class="st4" cx="1229.2" cy="352.5" r="28.2"/>
</g>
<g>
	<path class="st2" d="M339.9,1195.8v56.1h-19.2v-88.2h17.9L380,1218v-54.3h19.2v88.2h-16.5L339.9,1195.8z"/>
	<path class="st2" d="M451.4,1253.4c-20.9,0-36.4-15.5-36.4-34.9v-0.3c0-19.4,15.6-35.2,36.7-35.2c20.9,0,36.4,15.5,36.4,34.9v0.3
		C488.1,1237.6,472.5,1253.4,451.4,1253.4z M451.4,1199.6c-11,0-17.5,8.4-17.5,18.4v0.3c0,10,7.2,18.6,17.8,18.6
		c11,0,17.5-8.4,17.5-18.4v-0.3C469.2,1208.3,462,1199.6,451.4,1199.6z"/>
	<path class="st2" d="M582.5,1214.2c0-9.1-4.3-13.7-11.6-13.7c-7.3,0-12,4.7-12,13.7v37.7h-19.2v-92h19.2v34
		c4.4-5.7,10.1-10.8,19.8-10.8c14.5,0,22.9,9.6,22.9,25.1v43.7h-19.2V1214.2z"/>
	<path class="st2" d="M657.8,1244.6c-4.7,5.2-11.1,8.6-20.4,8.6c-12.7,0-23.2-7.3-23.2-20.7v-0.3c0-14.7,11.2-21.5,27.2-21.5
		c6.8,0,11.7,1.1,16.5,2.8v-1.1c0-7.9-4.9-12.3-14.5-12.3c-7.3,0-12.5,1.4-18.6,3.7L620,1189c7.4-3.3,14.7-5.4,26.2-5.4
		c20.9,0,30.1,10.8,30.1,29.1v39.2h-18.5V1244.6z M646,1222.1c-8.2,0-13.2,3.3-13.2,9.3v0.3c0,5.2,4.3,8.2,10.5,8.2
		c8.9,0,15-4.9,15-11.8v-3.4C654.9,1223.1,650.7,1222.1,646,1222.1z"/>
	<path class="st2" d="M706.5,1272.4c-6.9,0-12.1-1.8-17-4.7l6.4-13.9c2.5,1.5,5.7,2.6,8.2,2.6c3.3,0,5-1,6.7-4.4l-26.5-67.8h20.3
		l15.4,46l14.7-46h19.9l-26,69.2C723.5,1267.2,718,1272.4,706.5,1272.4z"/>
	<path class="st2" d="M826.6,1253c-11.7,0-19.7-4.7-19.7-20.3v-32h-8.1v-16.4h8.1v-17.3h19.2v17.3h15.9v16.4h-15.9v28.9
		c0,4.4,1.9,6.6,6.2,6.6c3.5,0,6.7-0.9,9.4-2.4v15.4C837.7,1251.5,833,1253,826.6,1253z"/>
	<path class="st2" d="M895.6,1244.6c-4.7,5.2-11.1,8.6-20.4,8.6c-12.7,0-23.2-7.3-23.2-20.7v-0.3c0-14.7,11.2-21.5,27.2-21.5
		c6.8,0,11.7,1.1,16.5,2.8v-1.1c0-7.9-4.9-12.3-14.5-12.3c-7.3,0-12.5,1.4-18.6,3.7l-4.8-14.6c7.4-3.3,14.7-5.4,26.2-5.4
		c20.9,0,30.1,10.8,30.1,29.1v39.2h-18.5V1244.6z M883.8,1222.1c-8.2,0-13.2,3.3-13.2,9.3v0.3c0,5.2,4.3,8.2,10.5,8.2
		c8.9,0,15-4.9,15-11.8v-3.4C892.7,1223.1,888.4,1222.1,883.8,1222.1z"/>
	<path class="st2" d="M949.8,1226.9v24.9h-19.2v-67.5h19.2v13.6c3.9-9.3,10.2-15.4,21.5-14.9v20h-1
		C957.6,1203.1,949.8,1210.8,949.8,1226.9z"/>
	<path class="st2" d="M1044.2,1224.8h-47c1.9,8.7,7.9,13.2,16.5,13.2c6.4,0,11.1-2,16.4-6.9l11,9.7c-6.3,7.8-15.4,12.6-27.6,12.6
		c-20.3,0-35.3-14.2-35.3-34.9v-0.3c0-19.3,13.7-35.2,33.4-35.2c22.6,0,32.9,17.5,32.9,36.7v0.3
		C1044.4,1221.9,1044.3,1223,1044.2,1224.8z M1011.5,1198.4c-7.9,0-13.1,5.7-14.6,14.4h28.9
		C1024.7,1204.2,1019.6,1198.4,1011.5,1198.4z"/>
	<path class="st2" d="M1098.2,1244.6c-4.7,5.2-11.1,8.6-20.4,8.6c-12.7,0-23.2-7.3-23.2-20.7v-0.3c0-14.7,11.2-21.5,27.2-21.5
		c6.8,0,11.7,1.1,16.5,2.8v-1.1c0-7.9-4.9-12.3-14.5-12.3c-7.3,0-12.5,1.4-18.6,3.7l-4.8-14.6c7.4-3.3,14.7-5.4,26.2-5.4
		c20.9,0,30.1,10.8,30.1,29.1v39.2h-18.5V1244.6z M1086.4,1222.1c-8.2,0-13.2,3.3-13.2,9.3v0.3c0,5.2,4.3,8.2,10.5,8.2
		c8.9,0,15-4.9,15-11.8v-3.4C1095.3,1223.1,1091.1,1222.1,1086.4,1222.1z"/>
	<path class="st2" d="M1157,1253.1c-9.5,0-20-3.2-29-10.2l8.2-12.6c7.3,5.3,15,8.1,21.3,8.1c5.5,0,8.1-2,8.1-5v-0.3
		c0-4.2-6.6-5.5-14-7.8c-9.5-2.8-20.2-7.2-20.2-20.3v-0.3c0-13.7,11.1-21.4,24.7-21.4c8.6,0,17.9,2.9,25.2,7.8l-7.3,13.2
		c-6.7-3.9-13.4-6.3-18.3-6.3c-4.7,0-7.1,2-7.1,4.7v0.3c0,3.8,6.4,5.5,13.7,8.1c9.5,3.2,20.4,7.7,20.4,20v0.3
		C1182.8,1246.3,1171.6,1253.1,1157,1253.1z"/>
	<path class="st2" d="M306.7,1404.3c-10.2,0-16.5-4.7-21-10.1v29h-19.2v-87.7h19.2v9.7c4.7-6.3,11.1-11,21-11
		c15.8,0,30.7,12.3,30.7,34.9v0.3C337.4,1392,322.7,1404.3,306.7,1404.3z M301.7,1350.5c-8.9,0-16.4,7.4-16.4,18.6v0.3
		c0,11.2,7.4,18.6,16.4,18.6c8.9,0,16.5-7.3,16.5-18.6v-0.3C318.3,1358,310.7,1350.5,301.7,1350.5z"/>
	<path class="st2" d="M414.3,1376h-47c1.9,8.7,7.9,13.2,16.5,13.2c6.4,0,11.1-2,16.4-6.9l11,9.7c-6.3,7.8-15.4,12.6-27.6,12.6
		c-20.3,0-35.3-14.2-35.3-34.9v-0.3c0-19.3,13.7-35.2,33.4-35.2c22.6,0,32.9,17.5,32.9,36.7v0.3
		C414.5,1373.1,414.4,1374.2,414.3,1376z M381.6,1349.7c-7.9,0-13.1,5.7-14.6,14.4h28.9C394.7,1355.4,389.7,1349.7,381.6,1349.7z"/>
	<path class="st2" d="M471.5,1365.4c0-9.1-4.3-13.7-11.6-13.7c-7.3,0-12,4.7-12,13.7v37.7h-19.2v-67.5h19.2v9.6
		c4.4-5.7,10.1-10.8,19.8-10.8c14.5,0,22.9,9.6,22.9,25.1v43.7h-19.2V1365.4z"/>
	<path class="st2" d="M556,1393.4c-4.7,6.3-11.1,11-21,11c-15.8,0-30.7-12.3-30.7-34.9v-0.3c0-22.6,14.7-34.9,30.7-34.9
		c10.2,0,16.5,4.7,21,10.1v-33.3h19.2v92H556V1393.4z M539.9,1350.5c-8.9,0-16.5,7.3-16.5,18.6v0.3c0,11.2,7.6,18.6,16.5,18.6
		c8.9,0,16.4-7.4,16.4-18.6v-0.3C556.3,1358,548.8,1350.5,539.9,1350.5z"/>
	<path class="st2" d="M592.7,1311.1h20.2v17h-20.2V1311.1z M593.2,1335.5h19.2v67.5h-19.2V1335.5z"/>
	<path class="st2" d="M693.1,1376h-47c1.9,8.7,7.9,13.2,16.5,13.2c6.4,0,11.1-2,16.4-6.9l11,9.7c-6.3,7.8-15.4,12.6-27.6,12.6
		c-20.3,0-35.3-14.2-35.3-34.9v-0.3c0-19.3,13.7-35.2,33.4-35.2c22.6,0,32.9,17.5,32.9,36.7v0.3
		C693.4,1373.1,693.3,1374.2,693.1,1376z M660.5,1349.7c-7.9,0-13.1,5.7-14.6,14.4h28.9C673.6,1355.4,668.6,1349.7,660.5,1349.7z"/>
	<path class="st2" d="M750.3,1365.4c0-9.1-4.3-13.7-11.6-13.7c-7.3,0-12,4.7-12,13.7v37.7h-19.2v-67.5h19.2v9.6
		c4.4-5.7,10.1-10.8,19.8-10.8c14.5,0,22.9,9.6,22.9,25.1v43.7h-19.2V1365.4z"/>
	<path class="st2" d="M808.9,1404.2c-11.7,0-19.7-4.7-19.7-20.3v-32h-8.1v-16.4h8.1v-17.3h19.2v17.3h15.9v16.4h-15.9v28.9
		c0,4.4,1.9,6.6,6.2,6.6c3.5,0,6.7-0.9,9.4-2.4v15.4C820,1402.7,815.4,1404.2,808.9,1404.2z"/>
	<path class="st2" d="M899.3,1376h-47c1.9,8.7,7.9,13.2,16.5,13.2c6.4,0,11.1-2,16.4-6.9l11,9.7c-6.3,7.8-15.4,12.6-27.6,12.6
		c-20.3,0-35.3-14.2-35.3-34.9v-0.3c0-19.3,13.7-35.2,33.4-35.2c22.6,0,32.9,17.5,32.9,36.7v0.3
		C899.5,1373.1,899.4,1374.2,899.3,1376z M866.6,1349.7c-7.9,0-13.1,5.7-14.6,14.4h28.9C879.7,1355.4,874.7,1349.7,866.6,1349.7z"/>
	<path class="st2" d="M937.5,1404.3c-9.5,0-20-3.2-29-10.2l8.2-12.6c7.3,5.3,15,8.1,21.3,8.1c5.5,0,8.1-2,8.1-5v-0.3
		c0-4.2-6.6-5.5-14-7.8c-9.5-2.8-20.2-7.2-20.2-20.3v-0.3c0-13.7,11.1-21.4,24.7-21.4c8.6,0,17.9,2.9,25.2,7.8l-7.3,13.2
		c-6.7-3.9-13.4-6.3-18.3-6.3c-4.7,0-7.1,2-7.1,4.7v0.3c0,3.8,6.4,5.5,13.7,8.1c9.5,3.2,20.4,7.7,20.4,20v0.3
		C963.3,1397.5,952.1,1404.3,937.5,1404.3z"/>
	<path class="st2" d="M1057.5,1365.4c0-9.1-4.3-13.7-11.6-13.7c-7.3,0-12,4.7-12,13.7v37.7h-19.2v-92h19.2v34
		c4.4-5.7,10.1-10.8,19.8-10.8c14.5,0,22.9,9.6,22.9,25.1v43.7h-19.2V1365.4z"/>
	<path class="st2" d="M1126.5,1404.6c-20.9,0-36.4-15.5-36.4-34.9v-0.3c0-19.4,15.6-35.2,36.7-35.2c20.9,0,36.4,15.5,36.4,34.9v0.3
		C1163.1,1388.8,1147.5,1404.6,1126.5,1404.6z M1126.5,1350.8c-11,0-17.5,8.4-17.5,18.4v0.3c0,10,7.2,18.6,17.8,18.6
		c11,0,17.5-8.4,17.5-18.4v-0.3C1144.2,1359.5,1137.1,1350.8,1126.5,1350.8z"/>
	<path class="st2" d="M1189.3,1423.6c-6.9,0-12.1-1.8-17-4.7l6.4-13.9c2.5,1.5,5.7,2.6,8.2,2.6c3.3,0,5-1,6.7-4.4l-26.5-67.8h20.3
		l15.4,46l14.7-46h19.9l-26,69.2C1206.4,1418.4,1200.8,1423.6,1189.3,1423.6z"/>
</g>
</svg>
